# xmcd
#
# Track frame offsets:
#	150
#	8098
#	24845
#	39417
#	61419
#	71777
#	83613
#	98909
#	112199
#	125020
#	134254
#	152795
#	168631
#	181734
#	195155
#	210122
#	224842
#
# Disc length: 3194 seconds
#
# Revision: 1
# Processed by: cddbd v1.5.2PL0 Copyright (c) Steve Scherf et al.
# Submitted via: audiograbber 1.83.01
#
DISCID=e50c7811
DTITLE=Various Artist - Heaven Knows Where We'll Go From Here
DYEAR=2009
DGENRE=Bluegrass
TTITLE0=Barker Bros - Amazing Grace
TTITLE1=Steel String Sessions - Beethoven's Old Hen
TTITLE2=Earl Brackin - Big Leagues
TTITLE3=Noah Collins - Cincinnati
TTITLE4=Louisa Branscomb - Crescent City Flood
TTITLE5=Glen Fletcher - Dance with My Cherie
TTITLE6=The Persimmon Sisters - Green Persimmon Trees
TTITLE7=John Boulware - Grey Eagle
TTITLE8=Kathy Reed - Heaven Knows Where We'll Go From Here (Dalton Song)
TTITLE9=Randall Franks and David Davis - I'm One of God's Children
TTITLE10=Spatial Effects - Just a Closer Walk
TTITLE11=The Wells Family - Let Go Like Rain
TTITLE12=Brian Ashley Jones - Maybe Then
TTITLE13=Silverbirch - Sally's Dance
TTITLE14=Ferrell Stowe - Trnava
TTITLE15=The Stairwell Sisters - Who's to Blame
TTITLE16=Rootbound - Willie's Last Night
EXTD=A Benefit to Help North Georgia Families Devastated by Job Loss
EXTT0=
EXTT1=
EXTT2=
EXTT3=
EXTT4=
EXTT5=
EXTT6=
EXTT7=
EXTT8=
EXTT9=
EXTT10=
EXTT11=
EXTT12=
EXTT13=
EXTT14=
EXTT15=
EXTT16=
PLAYORDER=
